<?xml version="1.0" encoding="UTF-8"?>
<svg version="1.1" xmlns="http://www.w3.org/2000/svg" viewBox="270 384 1014 280">
<path d="M0 0 C11.16967222 -0.34844978 22.3380411 -0.61450635 33.51205254 -0.77718258 C38.70172693 -0.85528878 43.88766945 -0.96108088 49.07519531 -1.1315918 C54.08762945 -1.29530519 59.09649087 -1.38439833 64.11139297 -1.42315865 C66.01838586 -1.45075284 67.92519521 -1.50465181 69.83065414 -1.58595085 C84.32949153 -2.1796225 84.32949153 -2.1796225 88.73548126 1.41646957 C91.86484204 4.97494634 94.04318012 8.96925556 96.10785294 13.21253777 C97.2110551 15.42285968 98.54482199 17.38888202 99.99609375 19.38476562 C100.60710937 20.26739075 100.60710937 20.26739075 101.23046875 21.16784668 C101.62878906 21.74151978 102.02710938 22.31519287 102.4375 22.90625 C108.52631314 31.72252524 114.45225506 40.64446831 120.375 49.57275391 C121.74895158 51.64295155 123.12413979 53.71232039 124.5 55.78125 C125.16974854 56.78937744 125.16974854 56.78937744 125.85302734 57.81787109 C128.23812719 61.39680732 130.65061863 64.95405994 133.1015625 68.48828125 C133.60751953 69.21817261 134.11347656 69.94806396 134.63476562 70.70007324 C135.60660465 72.09804713 136.58171543 73.49375393 137.56054688 74.88684082 C139.43075598 77.57457579 140.95848413 79.87545238 142 83 C146.91019299 80.30126798 151.40199685 77.3655707 155.875 74 C161.30365285 69.96681945 166.77663407 66.00972817 172.3125 62.125 C178.24087232 57.96065352 184.13387988 53.75159165 190 49.5 C196.59638272 44.72070445 203.22865039 39.99617832 209.88891602 35.30639648 C221.14655185 27.37931369 232.32179321 19.33907365 243.48046875 11.2734375 C244.52043251 10.54408745 244.52043251 10.54408745 245.58140564 9.80000305 C248.03361793 8.03919715 248.03361793 8.03919715 250.22537231 5.95779419 C258.55583911 -1.22606778 266.3126584 -1.05381864 276.69921875 -0.78125 C278.38740843 -0.76629861 280.0756332 -0.75492531 281.76387024 -0.74694824 C286.17225766 -0.71664052 290.57848106 -0.63827064 294.98602295 -0.54931641 C299.49754573 -0.46695698 304.00942389 -0.43083076 308.52148438 -0.390625 C317.34864099 -0.30524805 326.17405009 -0.1690103 335 0 C332.96178326 7.26372861 330.44993738 14.23628143 327.640625 21.234375 C327.21953964 22.2933046 326.79845428 23.35223419 326.36460876 24.44325256 C324.99690929 27.88037756 323.62346 31.31517335 322.25 34.75 C321.29422685 37.14915311 320.33890882 39.54848757 319.3840332 41.94799805 C317.47511192 46.7444061 315.56450428 51.54013701 313.65283203 56.33544922 C310.44104502 64.39753209 307.25776212 72.47072169 304.07962036 80.54611206 C298.55171442 94.58948546 292.95926652 108.60606798 287.33938599 122.612854 C279.06209263 143.25429134 270.96422065 163.96632964 262.86738586 184.67907715 C262.5181456 185.57219604 262.16890533 186.46531494 261.80908203 187.38549805 C261.355186 188.54688545 261.355186 188.54688545 260.89212036 189.73173523 C259.93773586 192.15830998 258.96840536 194.57898661 258 197 C236.55 197 215.1 197 193 197 C195.01278152 190.29072826 197.10157639 183.79205535 199.58984375 177.26953125 C199.93030228 176.36912109 200.2707608 175.46871094 200.62153625 174.54101562 C201.72336176 171.63017137 202.83025971 168.72128838 203.9375 165.8125 C204.70883114 163.77895532 205.47998837 161.74534466 206.25097656 159.71166992 C211.46307621 145.97763757 216.73941879 132.26947768 222.0625 118.578125 C225.49092392 109.75205847 228.87149247 100.90777144 232.25 92.0625 C232.54120728 91.30015045 232.83241455 90.5378009 233.13244629 89.75234985 C234.7558586 85.50190765 236.37834746 81.25111397 238 77 C234.81674722 78.06108426 232.71064551 79.42863322 229.9375 81.3125 C228.85984375 82.04082031 227.7821875 82.76914062 226.671875 83.51953125 C226.08083984 83.91994629 225.48980469 84.32036133 224.88085938 84.73291016 C222.93289652 86.045206 220.97575565 87.34267477 219.015625 88.63671875 C207.53750489 96.22231643 196.23631812 104.04956826 184.95996094 111.93115234 C171.69661007 121.20149507 158.42061985 130.45126762 145.02758789 139.53369141 C140.507771 142.59937764 136.00687958 145.68701698 131.5390625 148.828125 C130.66926758 149.43567627 129.79947266 150.04322754 128.90332031 150.66918945 C127.25932373 151.81900282 125.62033818 152.97602606 123.98730469 154.14135742 C123.25672852 154.65029541 122.52615234 155.1592334 121.7734375 155.68359375 C121.13841309 156.13275146 120.50338867 156.58190918 119.84912109 157.04467773 C118 158 118 158 114 158 C112.42285156 156.34545898 112.42285156 156.34545898 110.890625 153.99609375 C110.01845337 152.68487549 110.01845337 152.68487549 109.12866211 151.34716797 C108.50870361 150.38697754 107.88874512 149.42678711 107.25 148.4375 C105.90359556 146.40672158 104.55589795 144.37680005 103.20703125 142.34765625 C102.51303223 141.29594238 101.8190332 140.24422852 101.10400391 139.16064453 C97.78883732 134.18058574 94.36553858 129.27774669 90.9375 124.375 C89.93976563 122.94377808 89.93976563 122.94377808 88.921875 121.48364258 C86.94952408 118.65463583 84.97508793 115.82709639 83 113 C82.0730835 111.67258789 82.0730835 111.67258789 81.12744141 110.31835938 C77.6495432 105.33904294 74.16503251 100.3644323 70.67578125 95.39306641 C68.95545923 92.93639444 67.24292336 90.47442261 65.53125 88.01171875 C64.43761225 86.44523413 63.34386705 84.87882452 62.25 83.3125 C61.74823242 82.58691895 61.24646484 81.86133789 60.72949219 81.11376953 C58.37963149 77.50596696 58.37963149 77.50596696 55 75 C54.89453857 75.66507568 54.78907715 76.33015137 54.68041992 77.01538086 C53.83205655 80.73667339 52.49836559 84.20797913 51.11328125 87.75390625 C50.82003464 88.51404526 50.52678802 89.27418427 50.22465515 90.05735779 C49.25780711 92.56058831 48.28518983 95.0615343 47.3125 97.5625 C46.63052722 99.32474129 45.94889145 101.08711303 45.26757812 102.84960938 C43.18407065 108.23528656 41.09283301 113.61794102 39 119 C38.3871988 120.57665696 37.77440547 122.15331697 37.16162109 123.72998047 C34.87663626 129.60779703 32.59019513 135.48504501 30.30126953 141.36132812 C25.73623596 153.08463221 21.2053271 164.82092917 16.6875 176.5625 C16.35645264 177.42222412 16.02540527 178.28194824 15.68432617 179.16772461 C14.75101824 181.59198905 13.81868203 184.01662461 12.88671875 186.44140625 C12.46902473 187.52622032 12.46902473 187.52622032 12.04289246 188.63294983 C10.9773256 191.40861263 9.94035497 194.17893508 9 197 C-12.12 197 -33.24 197 -55 197 C-54.18375602 192.10253615 -53.03673177 188.06398225 -51.2265625 183.5234375 C-50.94726395 182.80929184 -50.66796539 182.09514618 -50.38020325 181.35935974 C-49.46730211 179.02903755 -48.54622129 176.70204413 -47.625 174.375 C-46.98393182 172.74328867 -46.34339393 171.11136892 -45.70336914 169.47924805 C-44.41272989 166.19077748 -43.11882952 162.90362217 -41.82177734 159.61767578 C-40.23599624 155.6002603 -38.65731559 151.58013686 -37.08203125 147.55859375 C-34.84997361 141.86215415 -32.61075905 136.16856528 -30.36865234 130.47607422 C-28.99036243 126.97552269 -27.61416213 123.47415527 -26.23828125 119.97265625 C-25.74961287 118.73078649 -25.2609243 117.48892467 -24.7722168 116.24707031 C-23.74834865 113.64479556 -22.72824215 111.04108435 -21.71020508 108.43652344 C-18.66058529 100.65284814 -15.55772866 92.89321008 -12.39299774 85.15550995 C-10.26083919 79.94196089 -8.14315586 74.72266034 -6.03305817 69.50014496 C-4.70430225 66.21439361 -3.3674895 62.93241089 -2.01184082 59.65765381 C-0.47665772 55.9489795 1.02410743 52.22721991 2.5234375 48.50390625 C2.99045074 47.39154099 3.45746399 46.27917572 3.93862915 45.13310242 C7.75091443 35.53440922 7.06236038 28.63303639 4.0625 18.875 C3.70800781 17.6890625 3.35351562 16.503125 2.98828125 15.28125 C2.66214844 14.1984375 2.33601562 13.115625 2 12 C0.85507355 7.90103681 0 4.29872763 0 0 Z " fill="#FBC308" transform="translate(945,387)"/>
<path d="M0 0 C29.65701239 -0.04565107 59.31402312 -0.08103272 88.97106328 -0.10213066 C92.47444264 -0.10463199 95.97782192 -0.10722065 99.48120117 -0.10986328 C100.17864423 -0.1103879 100.8760873 -0.11091252 101.594665 -0.11145304 C112.87915095 -0.1201494 124.16361647 -0.13591514 135.44809031 -0.15430559 C147.03189005 -0.17302605 158.61567788 -0.18397162 170.19949204 -0.18817699 C176.70387625 -0.19078385 183.20821417 -0.19690913 189.71258354 -0.21146011 C195.83643729 -0.22504867 201.96022571 -0.22922003 208.08409309 -0.22621536 C210.32983378 -0.22676495 212.57557669 -0.23073476 214.82130432 -0.23841095 C217.89233744 -0.24839203 220.96312538 -0.24595725 224.03416443 -0.24050903 C224.91843076 -0.24633472 225.80269709 -0.2521604 226.71375936 -0.25816262 C238.50915363 -0.20177788 251.69825921 2.94174712 260.47265625 11.265625 C268.16958829 20.00587519 270.70843159 28.15072126 270.359375 39.76171875 C269.97954874 45.72525848 268.17949949 50.98051488 265.98095703 56.51220703 C264.77254287 59.57685122 263.62140254 62.66151286 262.46484375 65.74609375 C261.75674298 67.60671411 261.04860351 69.46732249 260.33682251 71.32653809 C259.64572023 73.13332982 258.95986295 74.94212505 258.27416992 76.75097656 C254.14464605 87.31532305 249.26090037 97.45410268 241.3125 105.6875 C240.80195068 106.22511963 240.29140137 106.76273926 239.76538086 107.31665039 C231.06339126 116.2532884 221.52104642 122.29166171 210 127 C209.23558594 127.32871094 208.47117187 127.65742187 207.68359375 127.99609375 C198.99552998 131.54952884 190.2219216 131.12652027 181 131 C181.35078613 131.49588623 181.70157227 131.99177246 182.06298828 132.50268555 C189.45264104 142.96477735 196.72324208 153.49175679 203.79052734 164.17456055 C206.72200057 168.60074569 209.67892142 173.00490675 212.69921875 177.37109375 C213.29532959 178.233396 213.89144043 179.09569824 214.50561523 179.98413086 C215.63762214 181.61678743 216.77362374 183.24668423 217.91430664 184.87329102 C218.4221167 185.60604248 218.92992676 186.33879395 219.453125 187.09375 C219.89817383 187.72990234 220.34322266 188.36605469 220.80175781 189.02148438 C222.15994453 191.26409748 223.05024894 193.56036104 224 196 C214.65576779 196.37205245 205.31410998 196.65562919 195.96406746 196.82899475 C191.62115714 196.91224545 187.28333776 197.02492135 182.94335938 197.20703125 C155.32135593 198.33384197 155.32135593 198.33384197 148.65853882 194.73544312 C145.04672374 191.33136676 143.61668172 187.11878989 142.02893066 182.51361084 C140.03373603 177.63947983 136.80256763 173.49376809 133.78515625 169.20703125 C132.50653141 167.32445821 131.23116015 165.43967145 129.95898438 163.55273438 C128.66034275 161.63919633 127.36151286 159.72578605 126.0625 157.8125 C124.09094476 154.90498069 122.12022801 151.99690071 120.15098572 149.08781433 C118.93708941 147.29492009 117.72180027 145.50296782 116.50489807 143.71211243 C115.95679977 142.90324081 115.40870148 142.0943692 114.84399414 141.26098633 C114.36563614 140.55645828 113.88727814 139.85193024 113.39442444 139.12605286 C112 137 112 137 110.87710571 134.26916504 C109.06676269 131.56927715 109.06676269 131.56927715 105.1085968 131.39872742 C103.44652829 131.38420498 101.78408242 131.39759029 100.12231445 131.43237305 C99.21479431 131.43164291 98.30727417 131.43091278 97.37225342 131.43016052 C94.36865741 131.43364764 91.36660675 131.472562 88.36328125 131.51171875 C86.28249458 131.52104287 84.20169695 131.52816087 82.12089539 131.53315735 C76.64120233 131.55225859 71.16217075 131.60138681 65.68273926 131.65667725 C60.09262033 131.70780206 54.50239464 131.73065695 48.91210938 131.75585938 C37.94111544 131.80950212 26.9706127 131.8948531 16 132 C14.13921453 136.80594762 12.27854448 141.61193992 10.41796875 146.41796875 C10.14286154 147.12859152 9.86775433 147.83921429 9.58431053 148.57137108 C6.46619592 156.62593878 3.34900178 164.6808543 0.23828125 172.73828125 C-0.26494883 174.04102533 -0.76820299 175.34376011 -1.27148438 176.64648438 C-2.00027886 178.53330816 -2.72901509 180.42015465 -3.45678711 182.30737305 C-4.20336527 184.24302439 -4.95116556 186.17819956 -5.69921875 188.11328125 C-6.12033936 189.20423096 -6.54145996 190.29518066 -6.9753418 191.41918945 C-8 194 -8 194 -9 196 C-30.12 196 -51.24 196 -73 196 C-71.08967198 189.63223994 -69.15608554 183.48497664 -66.76953125 177.3125 C-66.46193375 176.50802933 -66.15433624 175.70355865 -65.8374176 174.87471008 C-64.83244028 172.2485175 -63.82250236 169.62426362 -62.8125 167 C-62.10396556 165.15142523 -61.3958015 163.30270846 -60.68798828 161.45385742 C-59.58558525 158.57476826 -58.48280483 155.69582766 -57.37860107 152.81742859 C-54.77287871 146.02477613 -52.18102179 139.22696559 -49.59765625 132.42578125 C-49.06326683 131.01956009 -49.06326683 131.01956009 -48.51808167 129.58493042 C-46.44720477 124.13544971 -46.44720477 124.13544971 -44.37808228 118.68530273 C-32.56602628 87.56602628 -32.56602628 87.56602628 -31 86 C-28.17330725 85.89854551 -25.37082194 85.86288652 -22.54356384 85.86869812 C-21.64588887 85.86658241 -20.7482139 85.86446669 -19.82333666 85.86228687 C-16.79098524 85.85625679 -13.75867508 85.85728916 -10.72631836 85.8581543 C-8.56183806 85.85512471 -6.3973584 85.85160382 -4.23287964 85.84762573 C0.44124994 85.8397196 5.11537183 85.83458533 9.78950691 85.83133507 C17.18069433 85.82543816 24.57183324 85.80890944 31.96299744 85.78999329 C34.49100205 85.78365531 37.0190067 85.7773297 39.54701138 85.77101612 C41.44652925 85.7662674 41.44652925 85.7662674 43.38442123 85.76142275 C60.59962393 85.71931396 77.81478144 85.68637904 95.0300293 85.67407227 C106.63063895 85.66569387 118.23112931 85.6432083 129.83167928 85.6047166 C135.97330965 85.58494292 142.11476162 85.57255564 148.25642586 85.57755089 C154.03732353 85.58219504 159.81788335 85.56840413 165.59871292 85.54053879 C167.71908014 85.53362226 169.83948225 85.53350538 171.9598484 85.54073906 C174.85852646 85.54962795 177.75609061 85.53393232 180.65467834 85.51225281 C181.90855043 85.52491661 181.90855043 85.52491661 183.18775326 85.53783625 C190.4241119 85.43801202 196.02425224 83.19430967 201.1875 78.0625 C205.97453373 71.94719593 209.60153434 63.7295004 209.0625 55.875 C208.72173167 53.3312364 208.27052946 52.28740592 206.50536728 50.41212749 C202.82985043 48.34045583 199.23827846 48.57778866 195.12896729 48.60127258 C194.22308451 48.59462576 193.31720174 48.58797893 192.38386798 48.58113068 C189.34206148 48.56244709 186.30064648 48.5651096 183.25878906 48.56762695 C181.08088116 48.55861308 178.90297836 48.54828679 176.7250824 48.53674316 C170.80607325 48.50910315 164.88716017 48.49987912 158.96809483 48.49388909 C152.78474157 48.48452365 146.6014606 48.45832177 140.41815186 48.43388367 C128.70623897 48.39016458 116.99434007 48.36165083 105.28237033 48.33856028 C91.94996076 48.31177648 78.61762944 48.2676243 65.28527117 48.22227156 C37.85688673 48.1293478 10.42847954 48.05770247 -17 48 C-16.5303391 46.41449468 -16.05907951 44.82946289 -15.5871582 43.24462891 C-15.32489944 42.36191315 -15.06264069 41.47919739 -14.79243469 40.56973267 C-13.72531355 37.10923796 -12.48035454 33.75850362 -11.1875 30.375 C-10.66530625 29.00002215 -10.1431727 27.62502144 -9.62109375 26.25 C-9.35538574 25.55390625 -9.08967773 24.8578125 -8.81591797 24.140625 C-7.44967978 20.55619159 -6.09956401 16.96573691 -4.75 13.375 C-4.50403076 12.72450684 -4.25806152 12.07401367 -4.00463867 11.40380859 C-2.5834608 7.62805422 -1.26616138 3.83010453 0 0 Z " fill="#FBFAFB" transform="translate(349,388)"/>
<path d="M0 0 C31.51685517 -0.06850717 63.03368907 -0.1215648 94.55060135 -0.15319599 C98.27543357 -0.1569479 102.00026565 -0.16083088 105.72509766 -0.16479492 C106.46661301 -0.16558185 107.20812836 -0.16636878 107.97211388 -0.16717956 C119.96266994 -0.18021675 131.95318265 -0.20386126 143.94371304 -0.23145839 C156.2563834 -0.25955961 168.56903112 -0.27618621 180.88173223 -0.28226548 C188.47313065 -0.28637217 196.0644065 -0.29932062 203.65576717 -0.3237494 C209.48677957 -0.34155224 215.31771425 -0.34335375 221.1487484 -0.33932304 C223.53352549 -0.34014596 225.91830738 -0.34608102 228.30305672 -0.35761642 C245.55157701 -0.43693277 259.51310399 0.26843538 274.25 10.1875 C281.20246297 17.29797349 284.93665314 25.43494134 285.25 35.375 C284.8433463 46.14832403 281.13551056 55.81657071 277.36206055 65.79345703 C276.44703889 68.22465531 275.55807218 70.66434813 274.66992188 73.10546875 C266.08827478 96.20701582 252.44944086 113.88028127 229.87890625 124.71875 C217.42162227 130.26283297 205.3174263 131.30093417 191.81005859 131.31884766 C190.19283556 131.32816093 188.57561727 131.33833166 186.95840454 131.34928894 C182.59550951 131.37644535 178.2326465 131.39169546 173.86968946 131.40471697 C169.2999402 131.42041075 164.73025574 131.44718087 160.16055298 131.4727478 C151.51941449 131.51942543 142.87826365 131.55622267 134.237064 131.58942068 C124.39417386 131.62772016 114.55134899 131.67710969 104.70851398 131.72740483 C84.47239092 131.83056073 64.23622649 131.919874 44 132 C43.66293533 132.89297287 43.66293533 132.89297287 43.31906128 133.8039856 C40.95373662 140.06849042 38.58403134 146.33132593 36.21191406 152.59326172 C35.3302833 154.92227387 34.44972498 157.25169231 33.5703125 159.58154297 C32.29717645 162.95390675 31.02003321 166.32473089 29.7421875 169.6953125 C29.35755341 170.71674347 28.97291931 171.73817444 28.57662964 172.79055786 C25.59346845 180.64204327 22.31718486 188.25990198 19 196 C-1.79 196 -22.58 196 -44 196 C-42.87573487 188.13014409 -42.87573487 188.13014409 -41.27734375 184.10546875 C-40.72904907 182.70421753 -40.72904907 182.70421753 -40.16967773 181.2746582 C-39.55974976 179.74651489 -39.55974976 179.74651489 -38.9375 178.1875 C-38.03008474 175.87285231 -37.1239277 173.55771113 -36.21875 171.2421875 C-35.97100327 170.61083389 -35.72325653 169.97948029 -35.46800232 169.32899475 C-32.24412482 161.10151287 -29.121849 152.8352332 -25.98599243 144.57391357 C-20.96871917 131.35992549 -15.94571308 118.14946334 -10.73803711 105.0090332 C-8.66421636 99.76449923 -6.71805051 94.48607931 -4.84082031 89.16772461 C-4 87 -4 87 -3 86 C-0.33726747 85.90085764 2.29967735 85.86733897 4.96290588 85.87542725 C5.80749467 85.8740171 6.65208346 85.87260695 7.52226585 85.87115407 C10.37496769 85.86748095 13.22762044 85.87084624 16.08032227 85.87402344 C18.11672505 85.8726296 20.15312754 85.8707309 22.18952942 85.86836243 C26.58700862 85.86385495 30.98447846 85.86200911 35.38195992 85.86190033 C42.33628341 85.86076275 49.29055346 85.84794392 56.24485779 85.83233643 C58.00345614 85.82847715 58.00345614 85.82847715 59.79758173 85.8245399 C62.19568956 85.81927291 64.59379735 85.81398743 66.99190509 85.80868387 C83.18935427 85.77354601 99.38673809 85.74702036 115.58422852 85.74951172 C126.49926797 85.75110036 137.41412631 85.73506035 148.3291077 85.69880509 C154.10748916 85.68033883 159.88556823 85.67100786 165.66397285 85.68328094 C171.10349671 85.69472117 176.54247974 85.68300508 181.98193169 85.65364647 C183.97652077 85.6470076 185.97115938 85.64886975 187.96572876 85.65994453 C190.69386643 85.67383301 193.42018255 85.65690182 196.14820862 85.63250732 C196.93354101 85.6438627 197.71887341 85.65521808 198.52800375 85.66691756 C205.9923404 85.53755859 211.10400026 82.0991847 216.25 76.875 C221.2667496 70.56979558 223.41212982 62.93881848 223.53125 54.97265625 C222.72067052 51.96278393 221.47758934 50.89571938 219 49 C216.05782689 48.60389057 213.48869727 48.45267093 210.54656982 48.48101807 C209.68560613 48.47351681 208.82464243 48.46601556 207.93758893 48.458287 C205.04766735 48.43795924 202.15852655 48.44612245 199.26855469 48.45410156 C197.19901755 48.44536932 195.12948717 48.43488477 193.05996704 48.42277527 C187.43636286 48.39485203 181.81297829 48.39151198 176.18931484 48.39249516 C170.31424954 48.3893715 164.43928394 48.3637647 158.56427002 48.34051514 C147.43670765 48.29990969 136.30920394 48.27960373 125.18157887 48.26654124 C112.51420158 48.2506866 99.84692435 48.21227745 87.17960501 48.17194796 C61.11977023 48.08948678 35.05993814 48.03543352 9 48 C9.21266793 47.24411276 9.42533587 46.48822552 9.64444828 45.7094326 C9.91985667 44.71818697 10.19526506 43.72694134 10.47901917 42.70565796 C10.7535621 41.72289572 11.02810503 40.74013348 11.31096745 39.72759056 C12.78016567 33.91165168 11.93650385 30.10305661 9.62890625 24.6484375 C9.13712891 23.46765625 8.64535156 22.286875 8.13867188 21.0703125 C7.6137857 19.83832662 7.08839004 18.6065577 6.5625 17.375 C5.53869619 14.94707705 4.52112908 12.51663468 3.50390625 10.0859375 C3.04830322 9.0139209 2.5927002 7.9419043 2.12329102 6.83740234 C1.21257774 4.53696556 0.56487467 2.3955082 0 0 Z " fill="#FAFAFA" transform="translate(638,388)"/>
<path d="M0 0 C3.93436187 1.93266899 6.98032544 4.06694954 9 8 C10.38790679 13.94486741 9.83297566 18.27195106 8 24 C8.33 24.99 8.66 25.98 9 27 C8.67 27.66 8.34 28.32 8 29 C7.05125 28.814375 6.1025 28.62875 5.125 28.4375 C2.10131207 27.71313368 2.10131207 27.71313368 0 29 C-5.20185538 29.51848559 -9.63560371 29.62018013 -14.4375 27.4375 C-18.58026031 23.49682556 -20.73462674 20.16089653 -21.4375 14.4375 C-20.72158912 8.81248597 -18.57739266 4.45984168 -14.00390625 0.91796875 C-9.57015044 -1.11308898 -4.72310959 -0.70619883 0 0 Z " fill="#EDECED" transform="translate(421,630)"/>
<path d="M0 0 C2.31 0 4.62 0 7 0 C9.21484375 2.40625 9.21484375 2.40625 10.9375 5.5 C11.52402344 6.5209375 12.11054687 7.541875 12.71484375 8.59375 C13.13894531 9.3878125 13.56304688 10.181875 14 11 C17.00441246 8.26322198 18.53593889 5.24838376 20.328125 1.64453125 C22 0 22 0 29 0 C29 9.57 29 19.14 29 29 C27.02 29 25.04 29 23 29 C22.67 23.39 22.34 17.78 22 12 C19.69 15.3 17.38 18.6 15 22 C11 18 11 18 7 11 C6.67 16.94 6.34 22.88 6 29 C4.02 29 2.04 29 0 29 C0 19.43 0 9.86 0 0 Z " fill="#EFEFEF" transform="translate(609,630)"/>
<path d="M0 0 C6 0 6 0 8.66796875 2.484375 C9.52635765 3.55835311 10.36586462 4.64764988 11.1875 5.75 C11.61224609 6.28882813 12.03699219 6.82765625 12.47460938 7.3828125 C14.69804466 10.21829763 16.83810296 13.11747061 19 16 C19.33 10.72 19.66 5.44 20 0 C21.98 0 23.96 0 26 0 C26 9.57 26 19.14 26 29 C21 29 21 29 18.46484375 26.5859375 C17.60701884 25.52790925 16.76494878 24.45695003 15.9375 23.375 C15.51662109 22.85292969 15.09574219 22.33085938 14.66210938 21.79296875 C11.8822417 18.30197214 9.4937223 14.74058345 7 11 C6.67 16.94 6.34 22.88 6 29 C4.02 29 2.04 29 0 29 C0 19.43 0 9.86 0 0 Z " fill="#EEBA08" transform="translate(1121,630)"/>
<path d="M0 0 C2.35125 -0.061875 4.7025 -0.12375 7.125 -0.1875 C7.85348145 -0.21481201 8.58196289 -0.24212402 9.33251953 -0.27026367 C13.99472075 -0.32906279 17.07847104 0.50395264 21 3 C23.51250583 6.76875875 23.53016086 8.53150134 23 13 C20.98670074 16.47681295 18.88463861 18.70512046 15 20 C13.43881572 20.06740865 11.8749748 20.08514456 10.3125 20.0625 C8.889375 20.041875 7.46625 20.02125 6 20 C6 22.97 6 25.94 6 29 C4.02 29 2.04 29 0 29 C0 19.43 0 9.86 0 0 Z " fill="#F0F0F1" transform="translate(556,630)"/>
<path d="M0 0 C6 0 6 0 7.78271484 1.46875 C8.48968506 2.47421875 8.48968506 2.47421875 9.2109375 3.5 C9.73300781 4.221875 10.25507812 4.94375 10.79296875 5.6875 C11.57607422 6.8321875 11.57607422 6.8321875 12.375 8 C12.92027344 8.763125 13.46554687 9.52625 14.02734375 10.3125 C15.36923962 12.19586263 16.68700805 14.09637413 18 16 C18.33 10.72 18.66 5.44 19 0 C20.98 0 22.96 0 25 0 C25 9.57 25 19.14 25 29 C20 29 20 29 18.34667969 27.65478516 C17.87649414 27.03909668 17.40630859 26.4234082 16.921875 25.7890625 C16.40109375 25.12132812 15.8803125 24.45359375 15.34375 23.765625 C14.8178125 23.05921875 14.291875 22.3528125 13.75 21.625 C13.20859375 20.92632813 12.6671875 20.22765625 12.109375 19.5078125 C8.23660714 14.47321429 8.23660714 14.47321429 7 12 C6.67 17.61 6.34 23.22 6 29 C4.02 29 2.04 29 0 29 C0 19.43 0 9.86 0 0 Z " fill="#F2F1F2" transform="translate(723,630)"/>
<path d="M0 0 C7.26 0 14.52 0 22 0 C22 1.65 22 3.3 22 5 C17.05 5 12.1 5 7 5 C7 6.98 7 8.96 7 11 C8.39025391 10.98259766 8.39025391 10.98259766 9.80859375 10.96484375 C11.00613281 10.95582031 12.20367188 10.94679688 13.4375 10.9375 C14.63246094 10.92589844 15.82742188 10.91429687 17.05859375 10.90234375 C20 11 20 11 21 12 C21 13.65 21 15.3 21 17 C16.38 17 11.76 17 7 17 C7 18.98 7 20.96 7 23 C12.28 23 17.56 23 23 23 C23 24.98 23 26.96 23 29 C15.41 29 7.82 29 0 29 C0 19.43 0 9.86 0 0 Z " fill="#F3C30C" transform="translate(920,630)"/>
<path d="M0 0 C6.93 0 13.86 0 21 0 C21 1.65 21 3.3 21 5 C16.05 5 11.1 5 6 5 C6 6.98 6 8.96 6 11 C10.62 11 15.24 11 20 11 C20 12.98 20 14.96 20 17 C15.38 17 10.76 17 6 17 C6 18.98 6 20.96 6 23 C11.28 23 16.56 23 22 23 C22 24.98 22 26.96 22 29 C14.74 29 7.48 29 0 29 C0 19.43 0 9.86 0 0 Z " fill="#E9E9E9" transform="translate(349,630)"/>
<path d="M0 0 C6.93 0 13.86 0 21 0 C21 1.65 21 3.3 21 5 C16.05 5 11.1 5 6 5 C6 6.98 6 8.96 6 11 C7.39025391 10.98259766 7.39025391 10.98259766 8.80859375 10.96484375 C10.00613281 10.95582031 11.20367188 10.94679688 12.4375 10.9375 C13.63246094 10.92589844 14.82742188 10.91429687 16.05859375 10.90234375 C19 11 19 11 20 12 C20 13.65 20 15.3 20 17 C15.38 17 10.76 17 6 17 C6 18.98 6 20.96 6 23 C11.28 23 16.56 23 22 23 C22 24.98 22 26.96 22 29 C14.74 29 7.48 29 0 29 C0 19.43 0 9.86 0 0 Z " fill="#E8E8E7" transform="translate(670,630)"/>
<path d="M0 0 C1.04929687 -0.02578125 2.09859375 -0.0515625 3.1796875 -0.078125 C6.43056586 0.28404182 7.74850767 1.06867854 10.125 3.25 C9.465 4.57 8.805 5.89 8.125 7.25 C7.30515625 7.13140625 6.4853125 7.0128125 5.640625 6.890625 C4.56296875 6.76171875 3.4853125 6.6328125 2.375 6.5 C1.30765625 6.36078125 0.2403125 6.2215625 -0.859375 6.078125 C-3.95733991 5.97918756 -3.95733991 5.97918756 -6.234375 7.98828125 C-8.22868806 10.73758425 -8.45426775 12.90480364 -8.24609375 16.2734375 C-7.60421066 19.69230955 -6.64602445 21.15483517 -3.875 23.25 C-0.7750349 23.35671136 2.10048688 22.90272612 5.125 22.25 C5.455 20.6 5.785 18.95 6.125 17.25 C3.815 17.25 1.505 17.25 -0.875 17.25 C-0.875 15.6 -0.875 13.95 -0.875 12.25 C3.085 12.25 7.045 12.25 11.125 12.25 C12.0515178 24.12315403 12.0515178 24.12315403 8.8125 28.0625 C2.44390711 30.1134028 -3.30431532 30.53534234 -9.375 27.5 C-13.93583409 23.39524932 -15.45321792 20.6967397 -15.9375 14.5625 C-15.83812733 10.88571103 -14.72347046 8.39239978 -12.875 5.25 C-8.50644131 1.20109195 -5.88808577 0.08637779 0 0 Z " fill="#EEBD07" transform="translate(1192.875,629.75)"/>
<path d="M0 0 C2.31 0 4.62 0 7 0 C8.57102489 3.80677259 10.1374843 7.61538764 11.69970703 11.42578125 C12.23197786 12.72219683 12.76550105 14.01809894 13.30029297 15.31347656 C14.06805964 17.17377949 14.83097659 19.03608163 15.59375 20.8984375 C16.05458984 22.01911621 16.51542969 23.13979492 16.99023438 24.29443359 C18 27 18 27 18 29 C16.02 29 14.04 29 12 29 C10.5393715 26.35261084 10 25.10551666 10 22 C5.5959216 22.01256513 1.32575123 22.13157267 -3 23 C-5.46974473 25.84100775 -5.46974473 25.84100775 -6 29 C-7.98 29 -9.96 29 -12 29 C-10.72372656 25.02766298 -9.29152356 21.20373325 -7.6171875 17.3828125 C-7.17246094 16.36445312 -6.72773437 15.34609375 -6.26953125 14.296875 C-5.80933594 13.25015625 -5.34914063 12.2034375 -4.875 11.125 C-4.40707031 10.05507813 -3.93914063 8.98515625 -3.45703125 7.8828125 C-2.30700558 5.2541824 -1.15459551 2.62662527 0 0 Z " fill="#EAB706" transform="translate(983,630)"/>
<path d="M0 0 C1.98 0 3.96 0 6 0 C6.02505615 0.55985596 6.0501123 1.11971191 6.07592773 1.6965332 C6.19203745 4.23541305 6.3146958 6.77393553 6.4375 9.3125 C6.47681641 10.19357422 6.51613281 11.07464844 6.55664062 11.98242188 C6.59853516 12.82998047 6.64042969 13.67753906 6.68359375 14.55078125 C6.72025146 15.33106689 6.75690918 16.11135254 6.79467773 16.9152832 C6.94125263 19.19329101 6.94125263 19.19329101 8 22 C10.31 22.33 12.62 22.66 15 23 C19.03812645 19.14591684 18.55257774 14.46956415 18.6875 9.25 C18.72166016 8.36183594 18.75582031 7.47367188 18.79101562 6.55859375 C18.87328714 4.37252197 18.94250172 2.18684049 19 0 C20.98 0 22.96 0 25 0 C25.11689626 3.37470504 25.18747934 6.7488843 25.25 10.125 C25.30027344 11.55199219 25.30027344 11.55199219 25.3515625 13.0078125 C25.43254901 18.83884135 25.11764464 22.49362667 21 27 C16.80939994 29.91739964 11.90731587 29.65218785 7 29 C3.35174297 26.87185006 1.57829282 24.86190968 0 21 C-0.22705078 18.61816406 -0.22705078 18.61816406 -0.1953125 16.015625 C-0.18886719 15.08105469 -0.18242187 14.14648438 -0.17578125 13.18359375 C-0.15902344 12.21550781 -0.14226562 11.24742187 -0.125 10.25 C-0.11597656 9.26644531 -0.10695313 8.28289063 -0.09765625 7.26953125 C-0.07412785 4.84610593 -0.04125368 2.42317778 0 0 Z " fill="#EAEAEA" transform="translate(461,630)"/>
<path d="M0 0 C2.33984375 1.0234375 2.33984375 1.0234375 4 2 C3.67 3.32 3.34 4.64 3 6 C-0.75 7.125 -0.75 7.125 -3 6 C-4.99960012 5.960008 -7.00047242 5.95653201 -9 6 C-8.88059914 7.97725705 -8.88059914 7.97725705 -8 10 C-5.78271679 11.03533079 -5.78271679 11.03533079 -3.125 11.5625 C0.44352578 12.40001115 2.78726531 12.96375564 5 16 C5.77333333 22.96 5.77333333 22.96 3.1875 26.4375 C-1.42853363 29.73466688 -6.53692134 29.52195019 -12 29 C-15.125 27.5 -15.125 27.5 -17 26 C-16.67 24.68 -16.34 23.36 -16 22 C-14.1875 21.375 -14.1875 21.375 -12 21 C-11.01 21.66 -10.02 22.32 -9 23 C-5.87478167 23.16699232 -5.87478167 23.16699232 -3 23 C-2.67 21.68 -2.34 20.36 -2 19 C-2.67546875 18.82984375 -3.3509375 18.6596875 -4.046875 18.484375 C-13.7044904 15.86062977 -13.7044904 15.86062977 -16 12 C-16.59774019 9.18539814 -16.63348943 6.81038945 -16 4 C-12.14991993 -1.31045527 -5.99369468 -0.76819336 0 0 Z " fill="#EBBA07" transform="translate(1047,630)"/>
<path d="M0 0 C7.59 0 15.18 0 23 0 C23 1.98 23 3.96 23 6 C20.36 6 17.72 6 15 6 C15 13.59 15 21.18 15 29 C12.69 29 10.38 29 8 29 C8 21.41 8 13.82 8 6 C5.36 6 2.72 6 0 6 C0 4.02 0 2.04 0 0 Z " fill="#DCDCDC" transform="translate(778,630)"/>
<path d="M0 0 C1.98 0 3.96 0 6 0 C6 7.59 6 15.18 6 23 C10.95 23 15.9 23 21 23 C21 24.98 21 26.96 21 29 C14.07 29 7.14 29 0 29 C0 19.43 0 9.86 0 0 Z " fill="#E8BB08" transform="translate(870,630)"/>
<path d="M0 0 C1.98 0 3.96 0 6 0 C8.3359375 2.40625 8.3359375 2.40625 10.375 5.5 C11.06335938 6.5209375 11.75171875 7.541875 12.4609375 8.59375 C12.96882812 9.3878125 13.47671875 10.181875 14 11 C12.515 13.475 12.515 13.475 11 16 C9.68 14.68 8.36 13.36 7 12 C6.67 17.61 6.34 23.22 6 29 C4.02 29 2.04 29 0 29 C0 19.43 0 9.86 0 0 Z " fill="#E8E8E8" transform="translate(723,630)"/>
<path d="M0 0 C4.29085983 0.87568568 6.18527073 2.33673797 9.0625 5.625 C9.56937865 8.48147239 9.36045219 10.69513677 9.0625 13.625 C7.0825 12.965 5.1025 12.305 3.0625 11.625 C2.0725 13.11 2.0725 13.11 1.0625 14.625 C2.0525 15.945 3.0425 17.265 4.0625 18.625 C3.7325 18.955 3.4025 19.285 3.0625 19.625 C-0.60179621 19.41758701 -3.22662799 19.0624597 -6.375 17.125 C-8.72938287 13.3579874 -8.82067142 9.94102034 -7.9375 5.625 C-5.5295018 2.15464966 -4.13585968 0.87997015 0 0 Z " fill="#0D0C0C" transform="translate(414.9375,634.375)"/>
<path d="M0 0 C2.31 0 4.62 0 7 0 C7 9.57 7 19.14 7 29 C4.69 29 2.38 29 0 29 C0 19.43 0 9.86 0 0 Z " fill="#D0D0D0" transform="translate(517,630)"/>
<path d="M0 0 C1.98 0 3.96 0 6 0 C6 9.57 6 19.14 6 29 C4.02 29 2.04 29 0 29 C0 19.43 0 9.86 0 0 Z " fill="#EABA0D" transform="translate(1083,630)"/>
<path d="M0 0 C53.13 0 106.26 0 161 0 C161 0.33 161 0.66 161 1 C159.77498291 1.00081715 159.77498291 1.00081715 158.52521801 1.00165081 C138.67081498 1.01660588 118.81663684 1.05900093 98.96235943 1.13209057 C89.36102943 1.16677145 79.75984346 1.19210014 70.15844727 1.19555664 C61.79168151 1.19859224 53.42517206 1.21902803 45.05850536 1.26052457 C40.62667997 1.28189322 36.19521932 1.29443551 31.7633419 1.28615379 C27.59432001 1.27863787 23.4260386 1.29433496 19.25715256 1.32806015 C17.72489288 1.33632333 16.19255998 1.33600827 14.66030693 1.32659721 C12.57166303 1.31503598 10.48547084 1.33399285 8.39701843 1.36076355 C6.64238549 1.36491162 6.64238549 1.36491162 4.85230541 1.36914349 C1.77544959 1.72428561 1.77544959 1.72428561 0.10018635 4.53995228 C-0.44440589 5.7576759 -0.44440589 5.7576759 -1 7 C-1.33 6.01 -1.66 5.02 -2 4 C-1.34 2.68 -0.68 1.36 0 0 Z " fill="#2A2A2A" transform="translate(682,519)"/>
<path d="M0 0 C0.33 0 0.66 0 1 0 C1 9.24 1 18.48 1 28 C7.93 28 14.86 28 22 28 C22 26.68 22 25.36 22 24 C16.39 24 10.78 24 5 24 C5 21.36 5 18.72 5 16 C6.65 15.67 8.3 15.34 10 15 C9.01 13.68 8.02 12.36 7 11 C9.14576637 10.97314062 11.29162645 10.95366912 13.4375 10.9375 C14.63246094 10.92589844 15.82742188 10.91429687 17.05859375 10.90234375 C20 11 20 11 21 12 C21 13.65 21 15.3 21 17 C16.38 17 11.76 17 7 17 C7 18.98 7 20.96 7 23 C12.28 23 17.56 23 23 23 C23 24.98 23 26.96 23 29 C15.41 29 7.82 29 0 29 C0 19.43 0 9.86 0 0 Z " fill="#A98206" transform="translate(920,630)"/>
<path d="M0 0 C25.08 0 50.16 0 76 0 C75.67 0.99 75.34 1.98 75 3 C50.25 2.67 25.5 2.34 0 2 C0 1.34 0 0.68 0 0 Z " fill="#C29D09" transform="translate(1204,387)"/>
<path d="M0 0 C2.22189824 2.22189824 2.92598892 4.08482708 4 7 C5.65 6.01 7.3 5.02 9 4 C10.00419637 6.4566947 11.00350501 8.91518353 12 11.375 C12.28617188 12.07367187 12.57234375 12.77234375 12.8671875 13.4921875 C15 18.7734375 15 18.7734375 15 21 C13.02 21 11.04 21 9 21 C7.23537317 17.91190305 7 16.76687864 7 13 C4.69 13 2.38 13 0 13 C0.99 12.01 1.98 11.02 3 10 C0.69 9.67 -1.62 9.34 -4 9 C-3.52418802 7.68628013 -3.04424851 6.37405454 -2.5625 5.0625 C-2.29566406 4.33160156 -2.02882813 3.60070312 -1.75390625 2.84765625 C-1 1 -1 1 0 0 Z " fill="#E7B504" transform="translate(986,638)"/>
<path d="M0 0 C7.37042925 -0.36248013 7.37042925 -0.36248013 10.0625 1.1875 C11 3 11 3 10.875 5.5625 C10 8 10 8 7 10 C4.66800612 10.07905064 2.33167378 10.08798769 0 10 C0 6.7 0 3.4 0 0 Z " fill="#1C1D1D" transform="translate(562,635)"/>
<path d="M0 0 C0.33 0 0.66 0 1 0 C1.28875 1.2375 1.5775 2.475 1.875 3.75 C2.61334794 6.72448742 3.44474933 9.333856 5 12 C4.01 12.495 4.01 12.495 3 13 C2.67 13.99 2.34 14.98 2 16 C-2.875 12.375 -2.875 12.375 -4 9 C-3.525625 8.62875 -3.05125 8.2575 -2.5625 7.875 C-0.47794198 5.37353038 -0.35378509 3.18406582 0 0 Z " fill="#E5AF06" transform="translate(1183,642)"/>
<path d="M0 0 C1.65 0 3.3 0 5 0 C4.76228882 0.84933105 4.76228882 0.84933105 4.51977539 1.71582031 C3.99214152 4.0345345 3.795844 6.17358397 3.68359375 8.546875 C3.64169922 9.39121094 3.59980469 10.23554687 3.55664062 11.10546875 C3.51732422 11.97816406 3.47800781 12.85085938 3.4375 13.75 C3.39431641 14.63816406 3.35113281 15.52632812 3.30664062 16.44140625 C3.20086385 18.62745963 3.09877454 20.81362089 3 23 C2.34 23.33 1.68 23.66 1 24 C0.67 16.08 0.34 8.16 0 0 Z " fill="#EDBD12" transform="translate(871,630)"/>
<path d="M0 0 C4.95 0 9.9 0 15 0 C15 1.32 15 2.64 15 4 C11.04 3.67 7.08 3.34 3 3 C3 2.34 3 1.68 3 1 C2.01 0.67 1.02 0.34 0 0 Z " fill="#F7F6F6" transform="translate(676,654)"/>
<path d="M0 0 C2.6855594 2.6855594 3.06049974 5.37621328 4 9 C1.36 9 -1.28 9 -4 9 C-3.52418802 7.68628013 -3.04424851 6.37405454 -2.5625 5.0625 C-2.29566406 4.33160156 -2.02882813 3.60070312 -1.75390625 2.84765625 C-1 1 -1 1 0 0 Z " fill="#251C03" transform="translate(986,638)"/>
<path d="M0 0 C2.31 0 4.62 0 7 0 C7 1.65 7 3.3 7 5 C3.5980513 7.09350689 0.94727588 7.17942163 -3 7 C0.32307692 2.2 0.32307692 2.2 3.75 1.1875 C4.4925 1.125625 5.235 1.06375 6 1 C4.02 1 2.04 1 0 1 C0 0.67 0 0.34 0 0 Z " fill="#3A2B04" transform="translate(1192,647)"/>
<path d="M0 0 C2.64 0 5.28 0 8 0 C8 1.65 8 3.3 8 5 C5.36 5 2.72 5 0 5 C0 3.35 0 1.7 0 0 Z " fill="#F6C60D" transform="translate(934,630)"/>
<path d="M0 0 C0 0.99 0 1.98 0 3 C-4.95 3 -9.9 3 -15 3 C-15 2.34 -15 1.68 -15 1 C-13.43784452 0.83013455 -11.8752548 0.66426036 -10.3125 0.5 C-9.44238281 0.4071875 -8.57226562 0.314375 -7.67578125 0.21875 C-5.10276661 0.00840136 -2.58015636 -0.03719144 0 0 Z " fill="#F0BB05" transform="translate(942,654)"/>
<path d="M0 0 C4.29 0 8.58 0 13 0 C13 1.65 13 3.3 13 5 C12.67 4.01 12.34 3.02 12 2 C10.02 2 8.04 2 6 2 C6.33 2.99 6.66 3.98 7 5 C5.1875 4.75 5.1875 4.75 3 4 C2.01 2.68 1.02 1.36 0 0 Z " fill="#C9A006" transform="translate(927,641)"/>
<path d="M0 0 C3.25 -0.3125 3.25 -0.3125 6 0 C4.515 1.485 4.515 1.485 3 3 C5.97 3.495 5.97 3.495 9 4 C9 4.33 9 4.66 9 5 C4.71 5 0.42 5 -4 5 C-2.68 3.35 -1.36 1.7 0 0 Z " fill="#F6C508" transform="translate(984,647)"/>
<path d="M0 0 C1.32 0 2.64 0 4 0 C4.75 1.75 4.75 1.75 5 4 C3.1875 6.25 3.1875 6.25 1 8 C0.34 8 -0.32 8 -1 8 C-1.04241723 5.66705225 -1.04092937 3.33297433 -1 1 C-0.67 0.67 -0.34 0.34 0 0 Z " fill="#F5C40D" transform="translate(1033,632)"/>
<path d="M0 0 C0.66 0 1.32 0 2 0 C2.66 1.32 3.32 2.64 4 4 C2.68 5.32 1.36 6.64 0 8 C-0.66 7.34 -1.32 6.68 -2 6 C-1.64644564 3.73725212 -1.02455574 2.04911148 0 0 Z " fill="#F0EFF0" transform="translate(736,642)"/>
<path d="M0 0 C0.90105469 0.11085938 1.80210938 0.22171875 2.73046875 0.3359375 C3.76107422 0.47902344 3.76107422 0.47902344 4.8125 0.625 C4.8125 1.615 4.8125 2.605 4.8125 3.625 C0.5225 2.965 -3.7675 2.305 -8.1875 1.625 C-4.73535147 -0.67643236 -3.95270676 -0.51333854 0 0 Z " fill="#F4CD0B" transform="translate(1196.1875,633.375)"/>
<path d="M0 0 C1.32 0.33 2.64 0.66 4 1 C3.67 2.32 3.34 3.64 3 5 C1.125 5.625 1.125 5.625 -1 6 C-1.66 5.34 -2.32 4.68 -3 4 C-2.34 4 -1.68 4 -1 4 C-0.67 2.68 -0.34 1.36 0 0 Z " fill="#DCAF03" transform="translate(1047,631)"/>
<path d="M0 0 C0.99 0.66 1.98 1.32 3 2 C2.67 3.98 2.34 5.96 2 8 C0.68 6.68 -0.64 5.36 -2 4 C-1.34 2.68 -0.68 1.36 0 0 Z " fill="#F1BC0F" transform="translate(1135,644)"/>
<path d="M0 0 C2.97 0.33 5.94 0.66 9 1 C9 1.33 9 1.66 9 2 C7.02 2 5.04 2 3 2 C3 2.99 3 3.98 3 5 C1.68 5 0.36 5 -1 5 C-0.67 3.35 -0.34 1.7 0 0 Z " fill="#FAC909" transform="translate(1187,653)"/>
<path d="M0 0 C0.99 0 1.98 0 3 0 C3 1.32 3 2.64 3 4 C4.32 4.33 5.64 4.66 7 5 C4.36 5 1.72 5 -1 5 C-0.67 3.35 -0.34 1.7 0 0 Z " fill="#F0C709" transform="translate(1139,579)"/>
<path d="M0 0 C2 3 2 3 1.625 5.6875 C1.41875 6.450625 1.2125 7.21375 1 8 C0.01 8 -0.98 8 -2 8 C-1.47731534 5.23723823 -0.89130413 2.6739124 0 0 Z " fill="#DAB105" transform="translate(892,575)"/>
<path d="M0 0 C2.475 0.495 2.475 0.495 5 1 C4.67 2.65 4.34 4.3 4 6 C3.67 5.34 3.34 4.68 3 4 C2.01 4 1.02 4 0 4 C0 2.68 0 1.36 0 0 Z " fill="#EEBF0F" transform="translate(978,641)"/>
<path d="M0 0 C0 0.99 0 1.98 0 3 C-2 4.6875 -2 4.6875 -4 6 C-4.33 4.35 -4.66 2.7 -5 1 C-3 0 -3 0 0 0 Z " fill="#F8C706" transform="translate(994,640)"/>
<path d="M0 0 C1.65 0.33 3.3 0.66 5 1 C3.515 3.475 3.515 3.475 2 6 C1.01 5.01 0.02 4.02 -1 3 C-0.67 2.01 -0.34 1.02 0 0 Z " fill="#121213" transform="translate(622,636)"/>
<path d="M0 0 C1.32 0.99 2.64 1.98 4 3 C3.34 4.32 2.68 5.64 2 7 C1.34 6.67 0.68 6.34 0 6 C0 4.02 0 2.04 0 0 Z " fill="#090801" transform="translate(1128,642)"/>
<path d="M0 0 C0.66 0 1.32 0 2 0 C0.89470285 4.50621146 0.34905453 6.65094547 -3 10 C-2.01 6.7 -1.02 3.4 0 0 Z " fill="#DFB005" transform="translate(942,448)"/>
<path d="M0 0 C1.98 0 3.96 0 6 0 C6 0.99 6 1.98 6 3 C4.35 3 2.7 3 1 3 C0.67 2.01 0.34 1.02 0 0 Z " fill="#F1BD02" transform="translate(933,643)"/>
<path d="M0 0 C1.09658936 3.28976808 0.79953138 4.71303767 0 8 C-0.66 8 -1.32 8 -2 8 C-2 5.69 -2 3.38 -2 1 C-1.34 0.67 -0.68 0.34 0 0 Z " fill="#D3D2D3" transform="translate(402,640)"/>
<path d="M0 0 C0 3 0 3 -2 5.1875 C-2.66 5.785625 -3.32 6.38375 -4 7 C-4.66 6.67 -5.32 6.34 -6 6 C-2.25 1.125 -2.25 1.125 0 0 Z " fill="#DFAF04" transform="translate(1185,631)"/>
</svg>
